<svg width="48.000000" height="48.000000" viewBox="0 0 48 48" fill="none" xmlns="http://www.w3.org/2000/svg" xmlns:xlink="http://www.w3.org/1999/xlink">
	<desc>
			Created with Pixso.
	</desc>
	<defs>
		<clipPath id="clip122_1097">
			<rect id="whatsapp (1) 1" width="48.000000" height="48.000000" fill="white" fill-opacity="0"/>
		</clipPath>
	</defs>
	<rect id="whatsapp (1) 1" width="48.000000" height="48.000000" fill="#FFFFFF" fill-opacity="0"/>
	<g clip-path="url(#clip122_1097)">
		<path id="Vector" d="M23.98 0.01C10.74 0.01 0 10.75 0 24C0 28.59 1.32 33.08 3.79 36.94L0.06 46.62C-0.14 47.14 0.12 47.71 0.63 47.91C0.75 47.96 0.87 47.98 1 47.98C1.11 47.98 1.22 47.96 1.33 47.92L11.33 44.35C22.57 51.36 37.36 47.92 44.37 36.67C51.37 25.43 47.93 10.64 36.69 3.63C32.87 1.26 28.47 0 23.98 0.01Z" fill="#55CD6C" fill-opacity="1.000000" fill-rule="nonzero"/>
		<path id="Vector" d="M35.42 28.09C35.42 28.09 32.97 26.89 31.44 26.09C29.7 25.2 27.66 26.87 26.7 27.83C25.21 27.25 23.85 26.39 22.69 25.28C21.58 24.12 20.72 22.76 20.14 21.27C21.1 20.31 22.77 18.27 21.88 16.53C21.09 15 19.88 12.55 19.88 12.55C19.71 12.21 19.36 12 18.99 12L16.99 12C14.08 12.5 11.96 15.04 11.99 18C11.99 21.14 15.75 27.16 18.28 29.7C20.81 32.23 26.84 35.99 29.98 35.99C32.93 36.02 35.47 33.9 35.98 30.99L35.98 28.99C35.98 28.61 35.76 28.26 35.42 28.09Z" fill="#FAFAFA" fill-opacity="1.000000" fill-rule="nonzero"/>
	</g>
</svg>
